<svg height="512pt" viewBox="-11 0 512 512" width="512pt" xmlns="http://www.w3.org/2000/svg"><path d="M425 433.1a245 245 0 1 0-404-66.7zm0 0" fill="#f948b4"/><path d="M107.7 53.6v45.2h304c6.9 0 12.4 5.6 12.4 12.5v265.5h32.6c7 0 12.7-5.7 12.7-12.7V53.6zm0 0" fill="#11dfef"/><path d="M107.7 53.6h65.4v45.2h-65.4zm0 0" fill="#0ac6e5"/><path d="M425.9 432.3V150.7H64v45.2h304c6.9 0 12.5 5.6 12.5 12.5V471c16.6-11 31.8-24.1 45.3-38.8zm0 0" fill="#d5f1fe"/><path d="M64.1 150.7h65.4v45.2H64.1zm0 0" fill="#11dfef"/><path d="M20.6 365.3A245 245 0 0 0 382.3 470V247.7H20.6zm0 0" fill="#e6f7fe"/><path d="M86 247.7H20.6v117.6c15 34.1 37.4 64.2 65.4 88V247.7zm0 0" fill="#d5f1fe"/><path d="M382.3 250v-42c0-7.7-6.2-13.8-13.7-13.8H34.3c-7.6 0-13.7 6.1-13.7 13.7V250zm0 0" fill="#615df9"/><path d="M99.7 194.2H34.3c-7.6 0-13.7 6.1-13.7 13.7V250H86v-42c0-7.7 6.1-13.8 13.7-13.8zm0 0" fill="#3342ae"/><path d="M425.9 153v-42.2c0-7.6-6.2-13.7-13.8-13.7H78c-7.6 0-13.8 6.1-13.8 13.7V153zm0 0" fill="#615df9"/><path d="M143.3 97H77.9c-7.6 0-13.8 6.2-13.8 13.8V153h65.4v-42.2c0-7.6 6.2-13.7 13.8-13.7zm0 0" fill="#3342ae"/><path d="M469.4 55.9V13.7c0-7.6-6.1-13.7-13.7-13.7H121.4c-7.5 0-13.7 6.1-13.7 13.7V56zm0 0" fill="#615df9"/><path d="M186.9 0h-65.5c-7.5 0-13.7 6.1-13.7 13.7V56h65.4V13.7C173.1 6.1 179.3 0 187 0zm0 0" fill="#3342ae"/><path d="M149.5 39.4a11.5 11.5 0 1 1 0-23 11.5 11.5 0 0 1 0 23zm0 0" fill="#f948b4"/><path d="M184.6 39.4a11.5 11.5 0 1 1 0-23 11.5 11.5 0 0 1 0 23zm0 0" fill="#fecd0a"/><path d="M219.7 39.4a11.5 11.5 0 1 1 0-23 11.5 11.5 0 0 1 0 23zm0 0" fill="#39df74"/><path d="M375.7 36.6H265.3a8.6 8.6 0 0 1 0-17.3h110.4a8.6 8.6 0 1 1 0 17.3zm0 0M431.3 36.6H413a8.6 8.6 0 1 1 0-17.3h18.4a8.6 8.6 0 1 1 0 17.3zm0 0" fill="#aeaeff"/><path d="M141.2 460.7l-49-49a11.5 11.5 0 0 1 0-16.3l49-49a11.5 11.5 0 1 1 16.3 16.4l-40.9 40.8 40.9 40.8a11.5 11.5 0 0 1-16.3 16.3zm0 0" fill="#f948b4"/><path d="M157.5 444.4l-40.9-40.8 6.3-6.3a12.8 12.8 0 0 1-16-16.5l-14.7 14.6a11.5 11.5 0 0 0 0 16.3l49 49a11.5 11.5 0 1 0 16.3-16.3zm0 0" fill="#e00e8b"/><path d="M245.4 460.7a11.5 11.5 0 0 1 0-16.3l40.8-40.8-40.8-40.8a11.5 11.5 0 0 1 16.3-16.3l49 49a11.5 11.5 0 0 1 0 16.2l-49 49a11.5 11.5 0 0 1-16.3 0zm0 0M174.8 463a11.5 11.5 0 0 1-5.8-15.2l43.8-97.9a11.5 11.5 0 1 1 21 9.4l-43.8 98a11.5 11.5 0 0 1-15.2 5.7zm0 0" fill="#f948b4"/><path d="M193.2 393.8l-24.2 54a11.5 11.5 0 1 0 21 9.4l24.7-55.1a12.8 12.8 0 0 1-21.5-8.3zm0 0" fill="#e00e8b"/><path d="M106 136.5a11.5 11.5 0 1 1 0-23 11.5 11.5 0 0 1 0 23zm0 0" fill="#f948b4"/><path d="M141 136.5a11.5 11.5 0 1 1 0-23 11.5 11.5 0 0 1 0 23zm0 0" fill="#fecd0a"/><path d="M176.1 136.5a11.5 11.5 0 1 1 0-23 11.5 11.5 0 0 1 0 23zm0 0" fill="#39df74"/><path d="M332.2 133.7H221.8a8.6 8.6 0 1 1 0-17.3h110.4a8.6 8.6 0 0 1 0 17.3zm0 0M387.7 133.7h-18.4a8.6 8.6 0 1 1 0-17.3h18.4a8.6 8.6 0 0 1 0 17.3zm0 0" fill="#aeaeff"/><path d="M62.4 233.6a11.5 11.5 0 1 1 0-23 11.5 11.5 0 0 1 0 23zm0 0" fill="#f948b4"/><path d="M97.5 233.6a11.5 11.5 0 1 1 0-23 11.5 11.5 0 0 1 0 23zm0 0" fill="#fecd0a"/><path d="M132.6 233.6a11.5 11.5 0 1 1 0-23 11.5 11.5 0 0 1 0 23zm0 0" fill="#39df74"/><path d="M288.6 230.7H178.2a8.6 8.6 0 1 1 0-17.2h110.4a8.6 8.6 0 1 1 0 17.2zm0 0" fill="#aeaeff"/><g fill="#8181fc"><path d="M340.5 28c0-4.8 3.8-8.7 8.6-8.7h-83.7a8.6 8.6 0 1 0 0 17.3H349a8.6 8.6 0 0 1-8.6-8.7zm0 0M296.9 125c0-4.7 3.8-8.6 8.6-8.6h-83.7a8.6 8.6 0 0 0 0 17.3h83.7a8.6 8.6 0 0 1-8.6-8.7zm0 0M253.3 222.1c0-4.8 3.9-8.6 8.6-8.6h-83.7a8.6 8.6 0 1 0 0 17.2h83.7a8.6 8.6 0 0 1-8.6-8.6zm0 0"/></g><path d="M344.2 230.7h-18.5a8.6 8.6 0 1 1 0-17.2h18.5a8.6 8.6 0 1 1 0 17.2zm0 0" fill="#aeaeff"/><path d="M310.6 395.4L296.1 381c3.4 10-6.1 19.8-16.2 16.3l6.3 6.4-40.8 40.8a11.5 11.5 0 1 0 16.3 16.3l49-49a11.5 11.5 0 0 0 0-16.3zm0 0" fill="#e00e8b"/></svg>