<svg xmlns="http://www.w3.org/2000/svg" viewBox="0 0 512 512"><path d="M256 0a256 256 0 1 1 0 512 256 256 0 0 1 0-512z" fill="#5dddd3"/><path d="M144 412.1h6.5c38.4.4 75.4 7.7 104.3 25.3 29-17.6 68.3-24.9 106.7-25.3h6.5c33.2.3 67.6 5.7 99.9 13.9v14.7c-77.8-19.5-160-18.8-195.1 4.4a17.4 17.4 0 0 1-17.9 5.7c-2.6 1-9.5 1.5-15.7-5.7C204 422 122 421.2 44.1 440.7V426A429.4 429.4 0 0 1 144 412z" fill="#c8cacc"/><path d="M44.1 149c73.6-22.4 168.2-22.3 211.9 12.6 43.8-34.9 138.3-35 211.9-12.6v277c-72.7-18.5-156.5-22.3-211.9 12.5-55.4-34.8-139.1-31-211.9-12.5V149z" fill="#fff"/><path d="M241.6 152.3a91 91 0 0 1 14.4 9.3c4.1-3.3 8.7-6.3 13.7-9V431c-4.7 2.3-9.3 4.8-13.7 7.6l-13.1-7.3-1.3-278.9z" fill="#ecf0f1"/><path d="M256 190c-47.3-46.7-153-32.2-211.9-17.3v-3.2c59.3-14.9 162.8-28.7 211.9 16.6 49-45.3 152.6-31.5 211.9-16.6v3.2c-59-15-164.6-29.4-211.9 17.3zm0 20.7c47.3-46.7 153-32.2 211.9-17.3v-3.2c-59.3-14.9-162.8-28.7-211.9 16.6-49-45.3-152.6-31.5-211.9-16.6v3.2c59-15 164.6-29.4 211.9 17.3zm0 20.7c47.3-46.7 153-32.2 211.9-17.3V211c-59.3-15-162.8-28.7-211.9 16.6-49-45.3-152.6-31.5-211.9-16.6v3.2c59-15 164.6-29.4 211.9 17.3zm0 20.6c-47.3-46.6-153-32.1-211.9-17.2v-3.2c59.3-15 162.8-28.7 211.9 16.6 49-45.3 152.6-31.5 211.9-16.6v3.2c-59-15-164.6-29.4-211.9 17.2zm0 20.7c-47.3-46.6-153-32.1-211.9-17.2v-3.2c59.3-15 162.8-28.7 211.9 16.5 49-45.2 152.6-31.4 211.9-16.5v3.2c-59-15-164.6-29.4-211.9 17.2zm0 20.7c47.3-46.6 153-32.1 211.9-17.2V273c-59.3-15-162.8-28.7-211.9 16.5-49-45.2-152.6-31.4-211.9-16.5v3.2c59-15 164.6-29.4 211.9 17.2zm0 20.7c47.3-46.6 153-32.1 211.9-17.2v-3.2c-59.3-15-162.8-28.7-211.9 16.5-49-45.2-152.6-31.4-211.9-16.5v3.2c59-15 164.6-29.4 211.9 17.2zm0 20.7c-47.3-46.6-153-32.1-211.9-17.2v-3.2c59.3-15 162.8-28.7 211.9 16.5 49-45.2 152.6-31.4 211.9-16.5v3.2c-59-15-164.6-29.4-211.9 17.2zm0 20.7c-47.3-46.6-153-32.1-211.9-17.2v-3.2c59.3-15 162.8-28.7 211.9 16.5 49-45.2 152.6-31.4 211.9-16.5v3.2c-59-15-164.6-29.4-211.9 17.2zm0 20.7c47.3-46.6 153-32.1 211.9-17.2v-3.2c-59.3-15-162.8-28.7-211.9 16.5-49-45.2-152.6-31.4-211.9-16.5v3.2c59-15 164.6-29.4 211.9 17.2zm0 20.7c47.3-46.6 153-32.1 211.9-17.2v-3.2c-59.3-15-162.8-28.7-211.9 16.5-49-45.2-152.6-31.4-211.9-16.5v3.2c59-15 164.6-29.4 211.9 17.2zm0 20.7c-47.3-46.6-153-32.2-211.9-17.2v-3.2c59.3-15 162.8-28.7 211.9 16.5 49-45.3 152.6-31.4 211.9-16.5v3.2c-59-15-164.6-29.4-211.9 17.2z" fill="#20d0c2"/><g fill="#ff5b61"><path d="M91.3 138.2l3.4-.6V416l-3.4.5V138.2zM420.7 138.2l-3.4-.6V416l3.4.5V138.2z"/></g><g fill="#c8cacc"><path d="M296.4 14.5l116 55.9c6 4.7 4.3 33.5 3.5 38.9-.7 5.4-4.4 3.5-8.4-.7s8.6-28.6-1.7-33L277.8 20c1.2-2.3 3.1-4.6 5.4-5.3 3.2-1 6.8-1.4 13.2-.2z"/><path d="M450 67L324.3 40.3c-7.7 0-24 23.8-26.6 28.6-2.7 4.7 1.3 5.4 7 4.6 5.8-.9 10.8-27.9 21.6-25.1l135.3 34.4c.4-2.6.3-5.6-1-7.6A25.7 25.7 0 0 0 450 67z"/></g><path d="M459.3 89.1l-3.8 6.9a3322 3322 0 0 0-7 12.6c-9.6 17.6-44 10.3-56.5 0l-1.5-1.5a29 29 0 0 1-6-12.7c-1.3-5.3-1.8-11-1.9-16.5 0-3.4.1-7.2 0-10.7 0-.5.2-1 .4-1.5l22.8 9.9c10.3 4.4-2.3 28.8 1.7 33 4 4.2 7.7 6 8.4.7.8-5.4 2.5-34.2-3.6-39l-.4-.1 49.6 12.6c-.3 2.1-1 4.3-2.2 6.3zm-69.9-35L450.1 67A188.3 188.3 0 0 0 393 51.4c-1.2.7-2.4 1.6-3.6 2.7zM275.6 26.4l-1.2 7.7-2.2 14.3c-3.1 19.8 28.4 35 44.8 34.5l2-.2a29 29 0 0 0 12.5-6.4c4.3-3.4 8.2-7.6 11.6-11.9 2.2-2.6 4.4-5.8 6.6-8.4l.7-1.5-24.2-6.1c-10.8-2.8-15.8 24.2-21.5 25-5.8.9-9.8.2-7.1-4.5 2.7-4.8 19-28.7 26.6-28.6l.5.1-47-20.4c-1 1.9-1.8 4-2.1 6.4zm76.7 15l-55.9-26.9c18 3.2 44.9 16 54.8 22.6.5 1.3.9 2.7 1.1 4.3z" fill="#fff"/><path d="M275.9 1.2c14 .3 72.6 19 78.6 25.8.6.7 13.8 9.5 13.8 9.5l5.6 2.4 5.9 1.5s15.8 1.1 16.8 1c8.8-1.7 66.2 19.2 77.8 27.6 3.2 1.3 6.5 2.8 6.4 3.4.4 1.6-4 11.4-4.5 11.8H472a9 9 0 0 0-1.6 2c-2.4 3.8-11.6 20.6-14.8 26.3-12.3 22.5-52 15.9-68.6 2.2-15-12.4-11.9-42.4-12.4-48.1a23 23 0 0 1 .3-4.8c-2.2-2.6-5-5.3-7-5.3-1.4-1.2-5.3-.8-8.6-.1a23 23 0 0 1-2.7 4c-4 4.3-20 29.8-39.3 30.5-21.4.7-57-18.4-53-43.8 1-6.4 4-25.3 4.5-29.7v-2.9c-1.6-1.2-2.7-2-2.9-2.3a43 43 0 0 1 3.6-12c.3-.5 3.4.2 6.4 1zm-.3 25.2l-1.2 7.7-2.2 14.3c-3.1 19.8 28.4 35 44.8 34.5l2-.2a29 29 0 0 0 12.5-6.4c4.3-3.4 8.2-7.6 11.6-11.9 2.2-2.6 4.4-5.8 6.6-8.4 4-8.3 3.1-14.7 1.4-18.9-13.2-8.8-57-28.7-68.9-22-3 1.7-5.8 6.2-6.6 11.3zM459.3 89c2.5-4.4 3-9.7 1.7-13-5.3-12.5-52.1-23.6-68-24.7-4 2.3-8.4 6.8-10.4 15.8.1 3.5 0 7.3 0 10.7.1 5.5.6 11.2 1.9 16.5a29 29 0 0 0 6 12.7l1.5 1.4c12.6 10.4 46.9 17.7 56.5.1l7-12.6 3.8-6.9z" fill="#0e7886"/><path d="M217.3 252.4l-40.2-21.7 18.6-18.6 21.6 40.3z" fill="#fed198"/><path d="M182.5 225.3c4.6-.4 7.4-2.8 7.7-7.7L45 72.2 37 79.9l145.4 145.4z" fill="#ff5b61"/><path d="M182.5 225.3c.4 3.7-1.2 5.7-5.4 5.4L31.7 85.4l5.4-5.5 145.4 145.4z" fill="#ec4b53"/><path d="M50.3 66.8L31.7 85.4l-4.6-4.6 18.6-18.6 4.6 4.6z" fill="#ecf0f1"/><path d="M32 57.6L22.4 67a6.5 6.5 0 0 0 0 9.2l4.6 4.6 18.6-18.6-4.6-4.6a6.5 6.5 0 0 0-9.2 0z" fill="#20d0c2"/><path d="M220 254.3l-.8.7-17-10.7 7-7 10.7 17z" fill="#666"/><path d="M190.2 217.6c3.7.4 5.7-1.2 5.5-5.5L50.3 66.8l-5.5 5.4 145.4 145.4z" fill="#ec4b53"/></svg>