<svg height="512pt" viewBox="0 0 512 512" width="512pt" xmlns="http://www.w3.org/2000/svg"><path d="M512 256a256 256 0 1 1-512 0 256 256 0 0 1 512 0zm0 0" fill="#2864f0"/><path d="M433 441a255.3 255.3 0 0 0 76.4-221.6L379.5 89.5l-55.6 107-94 41.5zm0 0M306.9 325.5l-1 2.7-101.6-101.6L104.5 422l80 80a256 256 0 0 0 243-55.8zm0 0" fill="#27488f"/><path d="M255.7 249.2c9.4 0 18-3.7 24.3-9.8v48.3h147.3v-50.5a35.1 35.1 0 0 1-61.7-23.2 35.2 35.2 0 0 1 61.7-23.2v-50.5h-55.7a34.3 34.3 0 1 0-37 0H280v48.2a35.1 35.1 0 0 0-59.6 25.5 35.2 35.2 0 0 0 35.3 35.2zm0 0" fill="#ffce00"/><path d="M255.7 249.2c9.4 0 18-3.7 24.3-9.8v48.3h147.3v-50.5a35.1 35.1 0 0 1-61.7-22.6H220.4c.4 19.2 16 34.6 35.3 34.6zm0 0" fill="#fdba12"/><path d="M143 250.2c0 9.4 3.6 18 9.7 24.3h-48.2V422h50.4a35.1 35.1 0 0 1 23.2-61.8 35.2 35.2 0 0 1 23.2 61.8h50.5v-55.7a34.3 34.3 0 1 0 0-37v-54.7h-48.2a35.2 35.2 0 1 0-60.7-24.3zm0 0" fill="#bfe1ff"/><path d="M104.5 348v73.9h50.4a35.1 35.1 0 0 1 23.2-61.8 35.2 35.2 0 0 1 23.2 61.8h50.5v-55.7a34.3 34.3 0 0 0 63.2-18.3zm0 0" fill="#87c7ff"/></svg>