<svg height="512pt" viewBox="0 -11 512 512" width="512pt" xmlns="http://www.w3.org/2000/svg"><path d="M245 0c-51 0-98.3 15.6-137.5 42.2v405.6A245 245 0 1 0 245 0zm0 0" fill="#27a3ff"/><path d="M336.8 472.2H153.2a244.1 244.1 0 0 0 183.6 0zm0 0" fill="#2b3894"/><path d="M118.6 404.5l-2-38.5H31.9a246.2 246.2 0 0 0 79.7 84.5H133l-3-5.7a97 97 0 0 1-11.3-40.3zm0 0" fill="#86fdfb"/><path d="M118.6 404.5l-2-38.5H31.9a246.2 246.2 0 0 0 79.7 84.5H133l-3-5.7a97 97 0 0 1-11.3-40.3zm0 0" fill="#11dfef"/><path d="M283.5 16.8H155.7a245.5 245.5 0 0 0-96 68L3.7 288c1.7 9 3.7 17.8 6.3 26.3l51.6-.3 240 1.6V34.9c0-10-8.2-18.1-18.1-18.1zm0 0" fill="#2b3894"/><path d="M0 245c0 14.7 1.3 29 3.8 43h271.6c.8 0 1.4-.6 1.4-1.4V110.3H40.3A243.8 243.8 0 0 0 0 245zm0 0" fill="#e6f7fe"/><path d="M87.8 110.3H40.3A243.8 243.8 0 0 0 3.8 288h84zm0 0M33 367.8h250.5c10 0 18-8.1 18-18v-37H9.6a243.4 243.4 0 0 0 23.5 55zm0 0" fill="#d5f1fe"/><path d="M74 340.3a12.4 12.4 0 1 1-24.7 0 12.4 12.4 0 0 1 24.7 0zm0 0" fill="#11dfef"/><path d="M39 112.3h237.8V84H60.2A245.6 245.6 0 0 0 39 112.3zm0 0" fill="#d5f1fe"/><path d="M87.8 84.1H60.2A246 246 0 0 0 39 112.3h48.8zm0 0" fill="#11dfef"/><path d="M274.6 41.5H108.5a246.3 246.3 0 0 0-48.8 43.2h217.1v-41c0-1.2-1-2.2-2.2-2.2zm0 0" fill="#615df9"/><path d="M87.8 57a246.4 246.4 0 0 0-28.1 27.7h28.1zm0 0" fill="#3d4ec6"/><path d="M177.6 70.6a7.5 7.5 0 1 0 0-15h-88a247 247 0 0 0-16.7 15zm0 0" fill="#aeaeff"/><path d="M152.7 63.1c0-4.1 3.3-7.5 7.5-7.5H89.5a247 247 0 0 0-16.6 15h87.3a7.5 7.5 0 0 1-7.5-7.5zm0 0" fill="#8181fc"/><path d="M247.3 70.6H208a7.5 7.5 0 1 1 0-15h39.2a7.5 7.5 0 0 1 0 15zm0 0" fill="#aeaeff"/><path d="M465.4 203.3H137.7c-9.1 0-16.5 7.4-16.5 16.5v227.7H482V219.8c0-9-7.5-16.5-16.6-16.5zm0 0" fill="#2b3894"/><path d="M225.8 203.3h-88.1c-9.1 0-16.5 7.4-16.5 16.5v227.7h97.4V214.3c0-4.9 3-9.1 7.2-11zm0 0" fill="#2b3894"/><path d="M135.1 285h333v162.5H135zm0 0" fill="#e6f7fe"/><path d="M135.1 285h83.5v162.5h-83.5zm0 0" fill="#d5f1fe"/><path d="M465.8 217.3H137.3c-1.2 0-2.2 1-2.2 2.2v41h333v-41c0-1.2-1-2.2-2.3-2.2zm0 0" fill="#615df9"/><path d="M137.3 217.3c-1.2 0-2.2 1-2.2 2.2v41h83.5v-43.2zm0 0" fill="#3342ae"/><path d="M159.3 246.4a7.5 7.5 0 0 1-1.4-14.9 7.5 7.5 0 1 1 1.4 14.9zm0 0" fill="#f948b4"/><path d="M179.9 246.4a7.5 7.5 0 1 1 1.4-14.9 7.5 7.5 0 0 1-1.4 14.9zm0 0" fill="#fecd0a"/><path d="M200.4 246.4a7.5 7.5 0 1 1 7.5-7.5c0 4.1-3.4 7.5-7.5 7.5zm0 0" fill="#39df74"/><path d="M383 246.4H226a7.5 7.5 0 0 1 0-15H383a7.5 7.5 0 1 1 0 15zm0 0" fill="#aeaeff"/><path d="M351.8 238.9c0-4.2 3.4-7.5 7.5-7.5H226.1a7.5 7.5 0 0 0 0 15h133.2a7.5 7.5 0 0 1-7.5-7.5zm0 0" fill="#8181fc"/><path d="M441.4 246.4h-34a7.5 7.5 0 0 1 0-15h34a7.5 7.5 0 1 1 0 15zm0 0" fill="#aeaeff"/><path d="M135.1 259.4h333V287H135zm0 0" fill="#d5f1fe"/><path d="M135.1 259.4h83.5V287h-83.5zm0 0" fill="#11dfef"/><path d="M188.8 259.4H135V287h81.3a27.6 27.6 0 0 0-27.6-27.6zm0 0" fill="#11dfef"/><path d="M506.8 444.5H102.7c16.3 11.6 34 21.3 53 28.7H481c15 0 24.3-6 28-7.3 1.8-.8 3-2.7 3-4.7v-11.6c0-2.8-2.3-5.1-5.2-5.1zm0 0" fill="#aeaeff"/><path d="M105.4 444.5l30.2 19.8c6.5 3.2 13.2 6.2 20 8.9h127.7a7.8 7.8 0 0 1 3-15h.1v-13.7h-181zm0 0" fill="#8181fc"/><path d="M236.7 444.5v6c0 4.6 3.7 8.3 8.3 8.3h113.1c4.6 0 8.4-3.7 8.4-8.4v-6H236.7zm0 0" fill="#8181fc"/><path d="M276.2 450.4v-6h-39.5v6c0 4.7 3.7 8.4 8.3 8.4h39.5a8.4 8.4 0 0 1-8.3-8.4zm0 0" fill="#615df9"/><path d="M182.1 257.4H94.3c-8.5 0-15.4 7-15.4 15.4v152.3l9 7.9 47.7 31.3c6.5 3.2 13.2 6.2 20 8.9h26.5c8.5 0 15.4-7 15.4-15.4v-185c0-8.5-6.9-15.4-15.4-15.4zm0 0" fill="#3d4ec6"/><path d="M121.2 454.8V275.4a9.5 9.5 0 0 1-5.9-18h-21c-8.5 0-15.4 7-15.4 15.4v152.3l9 8zm0 0" fill="#3342ae"/><path d="M182.1 266.3h-13c-1.3 0-2.3 1-2.3 2.3 0 2.9-2.4 5.3-5.3 5.3H115c-3 0-5.4-2.4-5.4-5.3 0-1.3-1-2.3-2.2-2.3h-13c-3.6 0-6.6 3-6.6 6.5V433a245.2 245.2 0 0 0 47.8 31.4h46.5c3.6 0 6.5-3 6.5-6.5v-185c0-3.6-3-6.5-6.5-6.5zm0 0" fill="#4fbbff"/><path d="M115.2 274h-.2c-3 0-5.4-2.5-5.4-5.4 0-1.3-1-2.3-2.2-2.3h-13c-3.6 0-6.6 3-6.6 6.5V433c8.7 7.3 17.9 14 27.4 20zm0 0" fill="#27a3ff"/></svg>